HIERARCHY
ROOT Hips
{
	OFFSET -14.64140 90.27770 -84.91600
	CHANNELS 6 Xposition Yposition Zposition Zrotation Xrotation Yrotation
	JOINT Spine
	{
		OFFSET 0.00000 13.20850 -1.60436
		CHANNELS 3 Zrotation Xrotation Yrotation
		JOINT Spine1
		{
			OFFSET 0.00000 8.61716 0.00000
			CHANNELS 3 Zrotation Xrotation Yrotation
			JOINT Spine2
			{
				OFFSET 0.00000 8.61717 0.00000
				CHANNELS 3 Zrotation Xrotation Yrotation
				JOINT Spine3
				{
					OFFSET 0.00000 8.61717 0.00000
					CHANNELS 3 Zrotation Xrotation Yrotation
					JOINT Neck
					{
						OFFSET 0.00000 11.07920 1.10792
						CHANNELS 3 Zrotation Xrotation Yrotation
						JOINT Neck1
						{
							OFFSET 0.00000 7.08032 0.00000
							CHANNELS 3 Zrotation Xrotation Yrotation
							JOINT Head
							{
								OFFSET 0.00000 7.08031 0.00000
								CHANNELS 3 Zrotation Xrotation Yrotation
								End site
								{
									OFFSET 0.00000 0.00000 0.00000
								}
							}
						}
					}
					JOINT RightShoulder
					{
						OFFSET -0.01000 7.91373 5.19711
						CHANNELS 3 Zrotation Xrotation Yrotation
						JOINT RightArm
						{
							OFFSET -18.41580 0.00000 0.00000
							CHANNELS 3 Zrotation Xrotation Yrotation
							JOINT RightForeArm
							{
								OFFSET -29.11090 0.00000 0.00000
								CHANNELS 3 Zrotation Xrotation Yrotation
								JOINT RightHand
								{
									OFFSET -24.65040 0.00000 0.00000
									CHANNELS 3 Zrotation Xrotation Yrotation
									JOINT RightHandThumb1
									{
										OFFSET -5.35114 -0.85590 3.97906
										CHANNELS 3 Zrotation Xrotation Yrotation
										JOINT RightHandThumb2
										{
											OFFSET -4.52789 0.00000 0.00000
											CHANNELS 3 Zrotation Xrotation Yrotation
											JOINT RightHandThumb3
											{
												OFFSET -2.46976 0.00000 0.00000
												CHANNELS 3 Zrotation Xrotation Yrotation
												End site
												{
													OFFSET 0.00000 0.00000 0.00000
												}
											}
										}
									}
									JOINT RightHandIndex1
									{
										OFFSET -14.26970 0.00000 2.88139
										CHANNELS 3 Zrotation Xrotation Yrotation
										JOINT RightHandIndex2
										{
											OFFSET -5.48836 0.00000 0.00000
											CHANNELS 3 Zrotation Xrotation Yrotation
											JOINT RightHandIndex3
											{
												OFFSET -3.01859 0.00000 0.00000
												CHANNELS 3 Zrotation Xrotation Yrotation
												End site
												{
													OFFSET 0.00000 0.00000 0.00000
												}
											}
										}
									}
									JOINT RightHandMiddle1
									{
										OFFSET -14.26970 0.00000 -0.09147
										CHANNELS 3 Zrotation Xrotation Yrotation
										JOINT RightHandMiddle2
										{
											OFFSET -6.17441 0.00000 0.00000
											CHANNELS 3 Zrotation Xrotation Yrotation
											JOINT RightHandMiddle3
											{
												OFFSET -3.56743 0.00000 0.00000
												CHANNELS 3 Zrotation Xrotation Yrotation
												End site
												{
													OFFSET 0.00000 0.00000 0.00000
												}
											}
										}
									}
									JOINT RightHandRing1
									{
										OFFSET -12.69180 0.00000 -3.06433
										CHANNELS 3 Zrotation Xrotation Yrotation
										JOINT RightHandRing2
										{
											OFFSET -5.62556 0.00000 0.00000
											CHANNELS 3 Zrotation Xrotation Yrotation
											JOINT RightHandRing3
											{
												OFFSET -3.56744 0.00000 0.00000
												CHANNELS 3 Zrotation Xrotation Yrotation
												End site
												{
													OFFSET 0.00000 0.00000 0.00000
												}
											}
										}
									}
									JOINT RightHandPinky1
									{
										OFFSET -11.11390 0.00000 -6.03719
										CHANNELS 3 Zrotation Xrotation Yrotation
										JOINT RightHandPinky2
										{
											OFFSET -4.52789 0.00000 0.00000
											CHANNELS 3 Zrotation Xrotation Yrotation
											JOINT RightHandPinky3
											{
												OFFSET -2.46976 0.00000 0.00000
												CHANNELS 3 Zrotation Xrotation Yrotation
												End site
												{
													OFFSET 0.00000 0.00000 0.00000
												}
											}
										}
									}
								}
							}
						}
					}
					JOINT LeftShoulder
					{
						OFFSET 0.01000 7.91373 5.19711
						CHANNELS 3 Zrotation Xrotation Yrotation
						JOINT LeftArm
						{
							OFFSET 18.41580 0.00000 0.00000
							CHANNELS 3 Zrotation Xrotation Yrotation
							JOINT LeftForeArm
							{
								OFFSET 29.11090 0.00000 0.00000
								CHANNELS 3 Zrotation Xrotation Yrotation
								JOINT LeftHand
								{
									OFFSET 24.65040 0.00000 0.00000
									CHANNELS 3 Zrotation Xrotation Yrotation
									JOINT LeftHandThumb1
									{
										OFFSET 5.35114 -0.85590 3.97906
										CHANNELS 3 Zrotation Xrotation Yrotation
										JOINT LeftHandThumb2
										{
											OFFSET 4.52789 0.00000 0.00000
											CHANNELS 3 Zrotation Xrotation Yrotation
											JOINT LeftHandThumb3
											{
												OFFSET 2.46977 0.00000 0.00000
												CHANNELS 3 Zrotation Xrotation Yrotation
												End site
												{
													OFFSET 0.00000 0.00000 0.00000
												}
											}
										}
									}
									JOINT LeftHandIndex1
									{
										OFFSET 14.26970 0.00000 2.88139
										CHANNELS 3 Zrotation Xrotation Yrotation
										JOINT LeftHandIndex2
										{
											OFFSET 5.48836 0.00000 0.00000
											CHANNELS 3 Zrotation Xrotation Yrotation
											JOINT LeftHandIndex3
											{
												OFFSET 3.01859 0.00000 0.00000
												CHANNELS 3 Zrotation Xrotation Yrotation
												End site
												{
													OFFSET 0.00000 0.00000 0.00000
												}
											}
										}
									}
									JOINT LeftHandMiddle1
									{
										OFFSET 14.26970 0.00000 -0.09147
										CHANNELS 3 Zrotation Xrotation Yrotation
										JOINT LeftHandMiddle2
										{
											OFFSET 6.17440 0.00000 0.00000
											CHANNELS 3 Zrotation Xrotation Yrotation
											JOINT LeftHandMiddle3
											{
												OFFSET 3.56744 0.00000 0.00000
												CHANNELS 3 Zrotation Xrotation Yrotation
												End site
												{
													OFFSET 0.00000 0.00000 0.00000
												}
											}
										}
									}
									JOINT LeftHandRing1
									{
										OFFSET 12.69180 0.00000 -3.06433
										CHANNELS 3 Zrotation Xrotation Yrotation
										JOINT LeftHandRing2
										{
											OFFSET 5.62556 0.00000 0.00000
											CHANNELS 3 Zrotation Xrotation Yrotation
											JOINT LeftHandRing3
											{
												OFFSET 3.56744 0.00000 0.00000
												CHANNELS 3 Zrotation Xrotation Yrotation
												End site
												{
													OFFSET 0.00000 0.00000 0.00000
												}
											}
										}
									}
									JOINT LeftHandPinky1
									{
										OFFSET 11.11390 0.00000 -6.03719
										CHANNELS 3 Zrotation Xrotation Yrotation
										JOINT LeftHandPinky2
										{
											OFFSET 4.52789 0.00000 0.00000
											CHANNELS 3 Zrotation Xrotation Yrotation
											JOINT LeftHandPinky3
											{
												OFFSET 2.46976 0.00000 0.00000
												CHANNELS 3 Zrotation Xrotation Yrotation
												End site
												{
													OFFSET 0.00000 0.00000 0.00000
												}
											}
										}
									}
								}
							}
						}
					}
					JOINT pCube4
					{
						OFFSET 0.00000 10.91090 1.10792
						CHANNELS 3 Zrotation Xrotation Yrotation
						End site
						{
							OFFSET 0.00000 0.00000 0.00000
						}
					}
				}
			}
		}
	}
	JOINT RightUpLeg
	{
		OFFSET -9.98441 0.00000 0.00000
		CHANNELS 3 Zrotation Xrotation Yrotation
		JOINT RightLeg
		{
			OFFSET 0.00000 -42.11790 0.00000
			CHANNELS 3 Zrotation Xrotation Yrotation
			JOINT RightFoot
			{
				OFFSET 0.00000 -45.00020 -0.00001
				CHANNELS 3 Zrotation Xrotation Yrotation
				JOINT RightForeFoot
				{
					OFFSET 0.00000 -3.74820 0.00000
					CHANNELS 3 Zrotation Xrotation Yrotation
					JOINT RightToeBase
					{
						OFFSET 0.00000 0.06325 14.43120
						CHANNELS 3 Zrotation Xrotation Yrotation
						End site
						{
							OFFSET 0.00000 0.00000 0.00000
						}
					}
				}
			}
		}
	}
	JOINT LeftUpLeg
	{
		OFFSET 9.98441 0.00000 0.00000
		CHANNELS 3 Zrotation Xrotation Yrotation
		JOINT LeftLeg
		{
			OFFSET 0.00000 -42.11800 0.00000
			CHANNELS 3 Zrotation Xrotation Yrotation
			JOINT LeftFoot
			{
				OFFSET 0.00000 -45.00070 0.00000
				CHANNELS 3 Zrotation Xrotation Yrotation
				JOINT LeftForeFoot
				{
					OFFSET 0.00000 -3.74824 0.00000
					CHANNELS 3 Zrotation Xrotation Yrotation
					JOINT LeftToeBase
					{
						OFFSET 0.00000 0.06325 14.43110
						CHANNELS 3 Zrotation Xrotation Yrotation
						End site
						{
							OFFSET 0.00000 0.00000 0.00000
						}
					}
				}
			}
		}
	}
}
MOTION
Frames: 4
Frame Time: 0.050000
0.0033984622706665947 0.0070429973152697145 -0.04245300695304868 0.04690230033357574 -0.0251618296297101 0.048002611614969604 -2.1742614068052877 3.8901002114564753 -1.0231109092849624 -0.9054116627930697 3.7848945907081095 0.3640261032946167 -0.9778594047657627 -0.38819697083351623 -1.0864125839109509 0.6594241733516406 0.38394537671599305 -0.8551320719953022 -0.20855685526208165 11.064376228061615 -0.9873372540787742 -0.06652577250707385 -0.9410462527687291 -3.541161220144079 0.3345873882309604 -15.85000287233466 -0.3187739584830302 0.303723623722185 0.5409539556060746 -14.910194848521726 66.1660317161285 1.2267638392797784 9.098134515097126 30.72684073118695 -1.853306531492723 93.83431257773157 13.63164555822084 -0.29232126139766457 -4.415834244413955 4.5498387040509645 -0.10765137358546104 -1.5739300691514768 0.026259934036919473 -0.012509940927898899 -56.238158000127974 0.0062448233082592125 0.00984210555434163 -56.26833126994773 -38.749111705794355 0.016833741667990065 0.02457260983201761 -0.01919802987479138 0.0184240117851321 -0.0358919097582506 -0.04767606461050367 0.027565874918000843 -0.0019819755172200237 -36.6897685973404 -0.020075368868355998 0.03406505972967065 -0.010854654870656719 -0.0010356503557507736 0.00668983254153712 0.013230591597589316 0.02973926680462717 0.04282114656682182 -19.7903620463165 -0.03355263461825047 0.008636371981249807 0.022832314808675713 0.032501100002892955 0.02015560321416757 -0.005797170097421819 0.022016566021813667 0.0014511365218793381 24.02615100456677 -0.01530546070081476 -0.03259963728367321 28.89923963931457 0.03954369582519222 0.03333048939275098 28.891737851827568 0.04667994138388899 0.017797360743538 1.0675556850642824 0.7188568653013314 12.7652470065317 -61.75791733848652 26.78229456316789 -17.08884431621122 -6.280967238566354 6.7801594691175975 -75.94304519831208 -13.209402724016988 3.7847095716803145 -1.7548021322136353 -0.5075143744031424 0.023676836055454058 -8.122748322606608 -0.043397582163151004 0.014880155470044594 44.571315716171775 -0.03255811246229695 0.025002154091604622 44.60115236242845 12.473822120498776 -0.02584950436325205 0.031089735902450434 0.031280692732607966 0.004712067545076987 0.03022409622391336 -0.008634909093064339 -0.004144059135100501 -0.031438280034963406 11.071529730307578 0.00921626245187086 0.02625533646979503 -0.020662755667665827 -0.04503773435298286 0.036998866735763 -0.029268275153313813 0.013498659336077053 -0.03457279920402477 4.797680010163152 0.007070639928766266 -0.02807655616068678 -0.015476134748140155 0.008275715447229997 -0.007605206470989486 -0.009077316776828595 0.04973054621347111 -0.003946683421132039 -5.56826692398782 -0.03210285389370563 -0.015299147474501425 -6.702244236172448 0.009227752138197038 -0.008728192130204588 -6.694065436113572 0.03978346881422457 0.00803037835334601 -0.01624164017306896 -0.034728016465421646 -0.04796277034026427 8.014607090412492 3.4540805896503173 -19.22431127087245 -0.02046674935582607 10.373885742682125 0.026505377840507403 -5.5727794638151416 -15.641985329934306 3.230330665288227 -0.039814232979892034 -0.025437580070538073 -0.0078018888054830135 0.03742512766671514 4.696788511547986 0.03468050867393495 12.508523772753994 -8.201180617591573 6.903812863363366 -0.024666463483398654 46.35988832549783 -0.0195789571116211 -4.3562060439489825 -14.75209997511025 -3.837344187496108 -0.03518493684698251 0.019710298745386927 0.005026647341548861 -0.008183380836533262 -10.723636795465916 -0.012088607087109874 
-0.004185556250188216 -0.009215648951967144 -0.04656873714781693 0.03129314530578767 -0.019201685638734988 0.04912314799891847 -2.1260636399502797 3.994429894735636 -1.029242769624233 -0.8728715960093296 3.8461351676137108 0.3519287961288442 -0.9004579665587851 -0.39881391979333447 -0.9430689546069877 0.5449808098393812 0.31839826720840814 -0.8701003281671263 -0.32238752618187505 11.04565499965285 -0.906654641907564 -0.06261503096517176 -0.9942914739830464 -3.3805147194409844 0.27297503329033557 -15.800022149549918 -0.28998347002515074 0.4622826913327881 0.4534800579464219 -14.595597752357302 65.50214285260273 3.4434134239839365 10.84560411863883 31.129346673728016 -2.4012143057461155 93.03054234777139 15.091219354526864 -0.3231323591463059 -5.025773728859544 4.555507155425216 -0.10254370217615442 -1.593485439354849 -0.01619991058326453 -0.04237643804423685 -56.235599421271324 -0.03733738147101222 0.01834969131847016 -56.21603996271407 -38.759657899576645 0.028803562712370685 0.006657553141803642 0.03152116680249643 -0.04253537914247231 -0.026959361281710705 -0.03229114175637377 0.04063979419167578 -0.025454053695200065 -36.651564393395894 -0.029006454753925954 -0.0050323277159411125 -0.027115660190629345 -0.049771355330471376 0.03790384152094556 0.01845524334847859 0.04340429078495785 0.02854728174494711 -19.765598014765 -0.035661617860742637 0.004982614944392809 -0.00800454251491157 0.019838891162120502 -0.019569363312170535 -0.013261246931608529 0.028560215231570516 -0.043346555663729976 24.064134751491643 -0.0027048238255139865 -0.015173878011200433 28.895554983672312 0.007599190535361115 0.02940680405001679 28.841263988877866 0.008620171622540937 -0.013934968882191683 1.2509402571017674 0.7132006797793626 12.661216231711288 -60.63790913039944 26.792957657027628 -19.463361801172024 -4.5493408984722965 5.121485477061378 -77.24084260261687 -13.755931173332236 4.323293656733312 -2.3725729852510518 -0.43360165832303443 0.0554563819045481 -8.137985769418485 0.02143888106225519 -0.03429086752024042 44.55806735288362 0.035594428965946896 0.021267223446637347 44.60197472467273 12.487002335147407 -0.008358970603328422 -0.0198478567478223 0.01359444417548413 -0.009579709653635238 -0.023786756153013244 0.019458803306946316 0.01703732146888776 0.0457666096625207 11.094731777516692 0.023350845775109184 -0.042107350585243265 0.002405445032371121 -0.00543301747818963 0.03107188027127862 -0.025547950977937273 -0.012391050481021902 0.029681600138921228 4.796980758313423 0.0032381334685290843 -0.003408374874997745 0.009280048693878008 0.02250888187165929 0.009806104418026079 0.00482730855576341 0.005537443909041803 -0.03876500127013836 -5.55918645212488 0.0012048847910278472 0.0010319602865613412 -6.719994824058119 -0.0278085406337165 0.0338574975387367 -6.75776835734121 0.03800172425939533 -0.005216605280960717 -0.01702195677304048 0.02951786623906096 0.032854794570269776 8.033728310581365 3.471777242526666 -19.231801971669064 0.02174823565826893 10.366050386596056 -0.03198511462423799 -5.590920836472357 -15.636182624695778 3.15191549927983 0.04889727418885833 -0.04403321007252121 0.027307600850737697 0.020382105515959405 4.6651317369955425 -0.00715724557661987 12.44672864713332 -8.247853648996903 6.90284582298886 0.00863527441215434 46.38390495769683 0.03492338486510376 -4.287185921740184 -14.710624688616324 -3.844779511597192 -0.049826796096376316 0.004769485913889122 -0.016321049058157403 -0.02814034100867608 -10.719431249605988 -0.0355917015583598 
0.025671692749187288 0.032026900784478105 -0.009486394541256375 -0.016811984107808372 -0.004722715624173336 0.011922695801794145 -2.1836821497832584 4.076117719022044 -1.034025083674391 -0.8741371152956211 3.842292516995958 0.3928656170531498 -0.9140776486048406 -0.3307919181002258 -0.9491459675704681 0.5907849730089108 0.380173438710186 -0.8587490268610506 -0.39859853228219405 11.009262624996468 -0.8589666240149109 -0.08214701902399522 -1.0289421166665478 -3.3090630292463143 0.28964090084635147 -15.79935461062795 -0.25833440119287776 0.75033878527993 0.358800189107525 -14.316844226177732 64.85692480317299 4.570677444536641 12.070136058383678 31.891810681339077 -2.3739351146427112 92.56893509729547 16.0468015587217 -0.3230629448175487 -5.565217992664006 4.49526713044135 -0.15260471847087678 -1.5862563373435152 0.011448374441760195 -0.017803014043679493 -56.25189585523226 -0.008854122342430555 -0.00046606678856160426 -56.21935469697911 -38.75707102982717 -0.02076137079335952 0.012190640620325745 -0.014257358960238631 -0.02706050297215924 0.046160948247110166 -0.0398529249748661 -0.010593757980276645 0.04967458462414939 -36.69550170617775 -0.002528308897531313 0.01070885830911767 -0.004388027381738362 -0.0024830382003399737 0.0013207999262716168 0.019658976767737184 -0.01179666852377294 -0.003370745363520457 -19.792851152995496 0.014223160436907738 -0.0208122969438494 -0.04130943887231436 -0.011254555418522952 0.03146512041695385 0.01776748907213988 -0.020286817029000568 -0.011886054406466992 24.091450238669132 -0.010240614933713725 0.04599845970127162 28.849806032618392 -0.026961761808695237 -0.03658241278795955 28.875658203151733 -0.030256904669209123 -0.04662605495324095 1.267504887971713 0.7573331625722979 12.628323849181266 -59.47069231230743 27.191864021307005 -21.302387099837123 -2.614728548211933 3.875119524759838 -78.15838047487772 -13.952075956874054 4.666671393258697 -2.8120888324777478 -0.5093976700414765 0.07379562390195801 -8.124723322664886 0.030907626746117186 0.019029968507165807 44.58671685065852 -0.00831682683777521 -0.008706703940996893 44.55193613054111 12.478141892495088 0.03436526837479676 -0.002259056302581608 0.03223796713934668 -0.019809090729610932 0.024431753525362226 0.024956750339843414 0.004517719745375277 0.03146155466885442 11.071458809240843 0.008182174007799099 0.03117122840576998 -0.04877809130196849 0.03466573537109314 0.014963395479620903 0.01982710152325992 -0.02202444719351149 -0.01517367922277331 4.740703185554071 -0.01612696546679129 0.008074681939538902 0.01683901100674523 -0.0006606806396279084 -0.040184670991841955 -0.00425380178488454 0.0105484478244317 -0.016515529114271132 -5.59600928004747 0.028175845803635313 -0.025441804561719322 -6.720790019613719 -0.019823857429061155 0.02407723305720793 -6.738178654866 -0.047045547621039775 -0.008672589631799232 -0.006085468408888887 0.026194505792284176 -0.03770628103378273 8.090383678425264 3.4638709441552145 -19.170183374122903 -0.012685687351090005 10.392776003698222 0.0424123549494025 -5.613503268928145 -15.681144729657051 3.235310098044849 0.026965286926482236 -0.015438439155977377 0.03013679524490595 0.023115670904499987 4.680440390652537 -0.04525058218088449 12.459024750491638 -8.242696543591657 6.914262617216026 -0.021156478576690983 46.34772278285867 -0.023055231250851526 -4.356120805337614 -14.706806097632736 -3.7876403073289353 -0.0064801314867370665 0.011108999791721306 0.03170410819263775 0.006030716605715692 -10.780810031070997 -0.024463801789127076 
-0.01932389973114144 0.021839540102322492 0.032736379247654435 0.025327474737362972 -0.007217696246052699 -0.0010232475395217198 -2.267181173162579 4.2338412393411415 -0.9628124128131272 -0.8864834208542672 3.8248754235010614 0.4324786018814979 -0.8682006071461454 -0.265274993915575 -1.1215103009909537 0.6446184401471089 0.4115491672269037 -0.8943526849796646 -0.39487587529864 10.967045865798983 -0.8679105929909311 -0.06795326563334954 -1.0357799496643347 -3.3899046754528706 0.19701167956260046 -15.838240889833195 -0.234503061188214 1.0369412122539405 0.23623066905065132 -14.169072188110242 64.09829792228146 4.962188614828 12.831312122977968 32.80058457659444 -1.9595039003577486 92.44790270475406 16.645288510864038 -0.26729059235347635 -6.0873704186618 4.573578874554688 -0.12076825464432266 -1.5489197590074448 0.0003855524485433867 0.009923063312568831 -56.19893188124625 0.0385761726289457 0.0016872694858293417 -56.267563912535906 -38.799471524557234 -0.03695016346719455 0.03994406371293867 -0.007636988002103316 0.025120928591081792 -0.022924650046724147 0.013174644766348519 -0.001129706387133543 -0.044128207711429696 -36.669097265071294 0.0028877100754473354 0.03810465884178754 -0.01156488527728131 0.003977135204036339 -0.030422875304188444 0.04935527150501911 -0.02030955532980076 -0.021666777043467943 -19.740339453523507 0.01672178189104166 -0.03907631685422737 -0.048252318243780824 -0.022030347752080397 0.03332976522212825 -0.041534331308623176 0.018482986941234333 0.022419442954512644 24.049442166977062 -0.043532839156834396 0.02070411406377843 28.859888174385475 0.03947954727813387 0.04826997663205573 28.87742559617303 -0.03637203026775979 0.0318457941796395 0.9648149542558829 0.6832278991065601 12.469016429365073 -58.387999313812756 27.800126105943004 -22.607452125014795 -0.4387402355337738 2.9049009630406406 -78.79554106005364 -13.876776511995887 5.020414285276208 -3.0849180399686444 -0.4899482365954298 0.10199272068037399 -8.080367000201734 -0.035066341597864356 -0.009646364647564515 44.55666446958019 0.0039023124256885103 -0.03142644338930392 44.525861511121725 12.470936581403432 0.0037006988969999514 -0.004578268945216632 0.004182878367771031 -0.0032667893356303165 -0.046740570004829674 -0.03740204969072038 -0.01984324091331894 -0.032502573085159414 11.145427400637509 0.0012191414821613772 0.011041028319190137 0.028758039130823265 -0.010348462003295051 -0.014623580309950035 -0.005123279389833289 -0.02021817243030676 -0.04200912665030223 4.75541429725134 0.026951837953652615 -0.006229684187758559 0.015243714189213341 0.040274659432826744 -0.042584488277149044 0.02234754660931368 0.010713566393469896 0.03319286399336572 -5.598114835584784 -0.017381782084762414 -0.04501057154662014 -6.702508633388762 -0.04393045869474251 -0.03644106023977148 -6.754539342708389 0.01932239350220065 0.007733221291845128 -0.020860441460844446 0.03077290635982484 0.01857274983822228 8.012506490009812 3.4447265472398225 -19.20887717321362 0.031113611549299116 10.44447452933019 -0.00997367918749353 -5.591648433395091 -15.670552438294223 3.1572944050679603 -0.028266424115617764 0.008021629479256562 -0.021036090965538802 -0.0065297774268980495 4.725042360956767 0.013468466537631866 12.454412284833554 -8.194154104281461 6.890160434576056 -0.04164477764424644 46.34692761499102 0.028783127966550012 -4.301458926158602 -14.74623369904213 -3.843671303667836 0.045422912714443674 -0.02507411147026218 0.004106043598075347 0.006205176286372212 -10.758443200967555 0.0013491075754293621 
